<svg viewBox="0 0 400 360" xmlns="http://www.w3.org/2000/svg">
  <!-- 
    CASTLE OUTLINE SVG

    All elements are 2px black stroke, no fill.

    Structure: 
    - Central gatehouse/tower with tall arch and battlements.
    - Two side towers with battlements and windows.
    - Walls connecting the towers with battlements.
    - Central arched door, small windows.

    The forms are simple and geometric for clarity and classic "castle" visual.
  -->

  <!-- 
    LEFT TOWER
    Tall rectangle with battlements at top and arrow slit window.
  -->
  <rect
    id="left-tower-body"
    x="55"
    y="100"
    width="60"
    height="190"
    stroke="black"
    stroke-width="2"
    fill="none"
  />
  <!-- Left tower battlements (3) -->
  <rect x="55" y="85" width="14" height="15" stroke="black" stroke-width="2" fill="none"/>
  <rect x="74" y="85" width="12" height="15" stroke="black" stroke-width="2" fill="none"/>
  <rect x="92" y="85" width="11" height="15" stroke="black" stroke-width="2" fill="none"/>
  <rect x="110" y="85" width="5" height="15" stroke="black" stroke-width="2" fill="none"/>
  <!-- Left tower window (vertical slot) -->
  <rect
    x="87"
    y="145"
    width="6"
    height="38"
    stroke="black"
    stroke-width="2"
    fill="none"
    rx="3"
  />

  <!-- 
    RIGHT TOWER
    Mirror of the left tower, with battlements and arrow slit window.
  -->
  <rect
    id="right-tower-body"
    x="285"
    y="100"
    width="60"
    height="190"
    stroke="black"
    stroke-width="2"
    fill="none"
  />
  <!-- Right tower battlements (3) -->
  <rect x="285" y="85" width="14" height="15" stroke="black" stroke-width="2" fill="none"/>
  <rect x="304" y="85" width="12" height="15" stroke="black" stroke-width="2" fill="none"/>
  <rect x="322" y="85" width="11" height="15" stroke="black" stroke-width="2" fill="none"/>
  <rect x="340" y="85" width="5" height="15" stroke="black" stroke-width="2" fill="none"/>
  <!-- Right tower window (vertical slot) -->
  <rect
    x="317"
    y="145"
    width="6"
    height="38"
    stroke="black"
    stroke-width="2"
    fill="none"
    rx="3"
  />

  <!-- 
    CENTRAL TOWER (Gatehouse)
    Larger, taller rectangle with an archway as door, battlements and a small window.
  -->
  <rect
    id="center-tower-body"
    x="135"
    y="50"
    width="130"
    height="240"
    stroke="black"
    stroke-width="2"
    fill="none"
  />
  <!-- Center tower battlements (5) -->
  <rect x="135" y="35" width="16" height="15" stroke="black" stroke-width="2" fill="none"/>
  <rect x="156" y="35" width="17" height="15" stroke="black" stroke-width="2" fill="none"/>
  <rect x="177" y="35" width="18" height="15" stroke="black" stroke-width="2" fill="none"/>
  <rect x="200" y="35" width="17" height="15" stroke="black" stroke-width="2" fill="none"/>
  <rect x="221" y="35" width="15" height="15" stroke="black" stroke-width="2" fill="none"/>
  <rect x="240" y="35" width="25" height="15" stroke="black" stroke-width="2" fill="none"/>

  <!-- Central window (circle, above door) -->
  <circle
    id="center-tower-window"
    cx="200"
    cy="90"
    r="11"
    stroke="black"
    stroke-width="2"
    fill="none"
  />

  <!--
    CENTRAL ARCH DOOR
    Large arch (half-ellipse for arch) plus vertical doorway walls.
  -->
  <!-- Door sides -->
  <line x1="165" y1="210" x2="165" y2="290" stroke="black" stroke-width="2"/>
  <line x1="235" y1="210" x2="235" y2="290" stroke="black" stroke-width="2"/>
  <!-- Arch (top half) -->
  <path
    d="M165 210 Q200 180 235 210"
    stroke="black"
    stroke-width="2"
    fill="none"
  />
  <!-- Bottom of door (arch base) -->
  <line x1="165" y1="290" x2="235" y2="290" stroke="black" stroke-width="2"/>
  <!-- Door vertical divider (suggests two doors) -->
  <line x1="200" y1="210" x2="200" y2="290" stroke="black" stroke-width="2"/>

  <!--
    CASTLE WALLS (connect towers)
    Each side: horizontal wall with battlements.
  -->
  <!-- Left wall -->
  <rect
    id="left-wall"
    x="115"
    y="155"
    width="20"
    height="60"
    stroke="black"
    stroke-width="2"
    fill="none"
  />
  <!-- Left wall battlements -->
  <rect x="115" y="140" width="8" height="15" stroke="black" stroke-width="2" fill="none"/>
  <rect x="127" y="140" width="8" height="15" stroke="black" stroke-width="2" fill="none"/>
  <!-- Right wall -->
  <rect
    id="right-wall"
    x="265"
    y="155"
    width="20"
    height="60"
    stroke="black"
    stroke-width="2"
    fill="none"
  />
  <!-- Right wall battlements -->
  <rect x="265" y="140" width="8" height="15" stroke="black" stroke-width="2" fill="none"/>
  <rect x="277" y="140" width="8" height="15" stroke="black" stroke-width="2" fill="none"/>
</svg>