<?xml version="1.0" encoding="UTF-8"?>
<svg viewBox="0 0 400 400" xmlns="http://www.w3.org/2000/svg">
  <!-- Body -->
  <ellipse cx="200" cy="250" rx="70" ry="80" fill="none" stroke="#000000" stroke-width="2"/>
  
  <!-- Head -->
  <circle cx="200" cy="150" r="60" fill="none" stroke="#000000" stroke-width="2"/>
  
  <!-- Ears -->
  <path d="M160 120 Q130 50 150 30 Q160 20 170 30 Q180 50 170 110" fill="none" stroke="#000000" stroke-width="2"/>
  <path d="M240 120 Q270 50 250 30 Q240 20 230 30 Q220 50 230 110" fill="none" stroke="#000000" stroke-width="2"/>
  <path d="M160 120 Q137 60 150 35" fill="none" stroke="#000000" stroke-width="2"/>
  <path d="M240 120 Q263 60 250 35" fill="none" stroke="#000000" stroke-width="2"/>
  
  <!-- Eyes -->
  <ellipse cx="180" cy="140" rx="10" ry="12" fill="none"/>
  <ellipse cx="220" cy="140" rx="10" ry="12" fill="none"/>
  <circle cx="178" cy="136" r="3" fill="none" stroke="#000000" stroke-width="2"/>
  <circle cx="218" cy="136" r="3" fill="none" stroke="#000000" stroke-width="2"/>
  
  <!-- Nose -->
  <path d="M195 155 Q200 155 205 155 Q207 160 200 165 Q193 160 195 155" fill="none" stroke="#000000" stroke-width="2"/>
  
  <!-- Mouth -->
  <path d="M190 170 Q200 180 210 170" fill="none" stroke="#000000" stroke-width="2"/>
  <path d="M200 165 L200 175" fill="none" stroke="#000000" stroke-width="2"/>
  
  <!-- Whiskers -->
  <line x1="175" y1="160" x2="135" y2="150" stroke="#000000" stroke-width="2"/>
  <line x1="175" y1="165" x2="135" y2="165" stroke="#000000" stroke-width="2"/>
  <line x1="175" y1="170" x2="135" y2="180" stroke="#000000" stroke-width="2"/>
  <line x1="225" y1="160" x2="265" y2="150" stroke="#000000" stroke-width="2"/>
  <line x1="225" y1="165" x2="265" y2="165" stroke="#000000" stroke-width="2"/>
  <line x1="225" y1="170" x2="265" y2="180" stroke="#000000" stroke-width="2"/>
  
  <!-- Feet -->
  <ellipse cx="170" cy="330" rx="20" ry="12" fill="none" stroke="#000000" stroke-width="2"/>
  <ellipse cx="230" cy="330" rx="20" ry="12" fill="none" stroke="#000000" stroke-width="2"/>
  
  <!-- Front paws -->
  <ellipse cx="155" cy="280" rx="15" ry="10" fill="none" stroke="#000000" stroke-width="2" transform="rotate(-30 155 280)"/>
  <ellipse cx="245" cy="280" rx="15" ry="10" fill="none" stroke="#000000" stroke-width="2" transform="rotate(30 245 280)"/>
  
  <!-- Tail -->
  <circle cx="200" cy="325" r="12" fill="none" stroke="#000000" stroke-width="2"/>
</svg>