<svg viewBox="0 0 480 220" xmlns="http://www.w3.org/2000/svg">
  <!--
    TRAIN OUTLINE SVG

    Style: Outline only, 2px solid black stroke, no fills.
    Composition:
    - Classic side view of a train with engine (locomotive) and two cars.
    - Wheels for each section, windows, cowcatcher, headlight, smokestack with smoke.
    - All elements spaced, no overlaps.
  -->

  <!--
    TRACKS
    Simple rails with periodic ties underneath the train, grounding the image.
  -->
  <!-- Rails: Two horizontal lines -->
  <line x1="40" y1="200" x2="440" y2="200" stroke="black" stroke-width="2"/>
  <line x1="40" y1="210" x2="440" y2="210" stroke="black" stroke-width="2"/>
  <!-- Ties: Short vertical lines across rails -->
  <g id="ties">
    <line x1="50" y1="198" x2="50" y2="212" stroke="black" stroke-width="2"/>
    <line x1="90" y1="198" x2="90" y2="212" stroke="black" stroke-width="2"/>
    <line x1="130" y1="198" x2="130" y2="212" stroke="black" stroke-width="2"/>
    <line x1="170" y1="198" x2="170" y2="212" stroke="black" stroke-width="2"/>
    <line x1="210" y1="198" x2="210" y2="212" stroke="black" stroke-width="2"/>
    <line x1="250" y1="198" x2="250" y2="212" stroke="black" stroke-width="2"/>
    <line x1="290" y1="198" x2="290" y2="212" stroke="black" stroke-width="2"/>
    <line x1="330" y1="198" x2="330" y2="212" stroke="black" stroke-width="2"/>
    <line x1="370" y1="198" x2="370" y2="212" stroke="black" stroke-width="2"/>
    <line x1="410" y1="198" x2="410" y2="212" stroke="black" stroke-width="2"/>
  </g>

  <!--
    LOCOMOTIVE BODY
    Engine at left, with main rectangle body and cab.
  -->
  <!-- Locomotive main body -->
  <rect x="60" y="140" width="70" height="36" stroke="black" stroke-width="2" fill="none" rx="6"/>
  <!-- Locomotive cabin (higher section) -->
  <rect x="120" y="120" width="38" height="56" stroke="black" stroke-width="2" fill="none" rx="5"/>
  <!-- Boiler (cylinder on front) -->
  <rect x="45" y="148" width="35" height="20" stroke="black" stroke-width="2" fill="none" rx="10"/>

  <!--
    COWCATCHER (front triangle grill at bottom left)
  -->
  <polyline points="45,165 30,200 65,200" stroke="black" stroke-width="2" fill="none"/>

  <!--
    HEADLIGHT (rectangle with circle front)
  -->
  <rect x="33" y="154" width="10" height="11" stroke="black" stroke-width="2" fill="none" rx="2"/>
  <circle cx="38" cy="160" r="5" stroke="black" stroke-width="2" fill="none"/>

  <!--
    SMOKESTACK (on top of boiler) and SMOKE
  -->
  <!-- Stack -->
  <rect x="65" y="127" width="13" height="18" stroke="black" stroke-width="2" fill="none" rx="4"/>
  <!-- Smoke: 3 wavy puffs, not overlapping -->
  <path d="M72 125 Q65 120 68 115 Q70 111 77 113" stroke="black" stroke-width="2" fill="none"/>
  <path d="M77 112 Q82 108 80 102 Q77 97 72 99" stroke="black" stroke-width="2" fill="none"/>
  <path d="M78 100 Q86 92 81 88 Q76 84 69 89" stroke="black" stroke-width="2" fill="none"/>

  <!--
    ENGINE WINDOWS (rounded rectangles in cab)
  -->
  <rect x="128" y="126" width="12" height="13" stroke="black" stroke-width="2" fill="none" rx="3"/>
  <rect x="143" y="126" width="8" height="13" stroke="black" stroke-width="2" fill="none" rx="2"/>

  <!--
    LOCOMOTIVE WHEELS
    Three large wheels beneath engine
  -->
  <circle cx="74" cy="185" r="12" stroke="black" stroke-width="2" fill="none"/>
  <circle cx="104" cy="185" r="12" stroke="black" stroke-width="2" fill="none"/>
  <circle cx="134" cy="185" r="10" stroke="black" stroke-width="2" fill="none"/>

  <!--
    TRAILER COUPLINGS
    Small arcs between cars
  -->
  <path d="M158 176 Q163 182 168 176" stroke="black" stroke-width="2" fill="none"/>
  <path d="M258 176 Q263 182 268 176" stroke="black" stroke-width="2" fill="none"/>

  <!--
    FIRST TRAIN CAR (RECTANGULAR)
    Passenger car with rounded windows
  -->
  <rect x="168" y="150" width="90" height="32" stroke="black" stroke-width="2" fill="none" rx="7"/>
  <!-- Car windows (4) -->
  <rect x="183" y="157" width="14" height="15" stroke="black" stroke-width="2" fill="none" rx="3"/>
  <rect x="202" y="157" width="14" height="15" stroke="black" stroke-width="2" fill="none" rx="3"/>
  <rect x="221" y="157" width="14" height="15" stroke="black" stroke-width="2" fill="none" rx="3"/>
  <rect x="240" y="157" width="14" height="15" stroke="black" stroke-width="2" fill="none" rx="3"/>
  <!-- Car wheels (2) -->
  <circle cx="188" cy="192" r="9" stroke="black" stroke-width="2" fill="none"/>
  <circle cx="238" cy="192" r="9" stroke="black" stroke-width="2" fill="none"/>

  <!--
    SECOND TRAIN CAR (RECTANGULAR)
    Another passenger car
  -->
  <rect x="268" y="150" width="90" height="32" stroke="black" stroke-width="2" fill="none" rx="7"/>
  <!-- Car windows (4) -->
  <rect x="283" y="157" width="14" height="15" stroke="black" stroke-width="2" fill="none" rx="3"/>
  <rect x="302" y="157" width="14" height="15" stroke="black" stroke-width="2" fill="none" rx="3"/>
  <rect x="321" y="157" width="14" height="15" stroke="black" stroke-width="2" fill="none" rx="3"/>
  <rect x="340" y="157" width="14" height="15" stroke="black" stroke-width="2" fill="none" rx="3"/>
  <!-- Car wheels (2) -->
  <circle cx="288" cy="192" r="9" stroke="black" stroke-width="2" fill="none"/>
  <circle cx="338" cy="192" r="9" stroke="black" stroke-width="2" fill="none"/>

  <!--
    REAR GUARD RAIL (curve at end)
  -->
  <path d="M358 150 Q359 135 375 142 Q390 149 357 182" stroke="black" stroke-width="2" fill="none"/>
</svg>